<?xml version="1.0" encoding="UTF-8" standalone="no"?><svg xmlns="http://www.w3.org/2000/svg" xmlns:xlink="http://www.w3.org/1999/xlink" contentScriptType="application/ecmascript" contentStyleType="text/css" height="405px" preserveAspectRatio="none" style="width:1213px;height:405px;" version="1.1" viewBox="0 0 1213 405" width="1213px" zoomAndPan="magnify"><defs><filter height="300%" id="fso0ib47mr72s" width="300%" x="-1" y="-1"><feGaussianBlur result="blurOut" stdDeviation="2.0"/><feColorMatrix in="blurOut" result="blurOut2" type="matrix" values="0 0 0 0 0 0 0 0 0 0 0 0 0 0 0 0 0 0 .4 0"/><feOffset dx="4.0" dy="4.0" in="blurOut2" result="blurOut3"/><feBlend in="SourceGraphic" in2="blurOut3" mode="normal"/></filter></defs><g><rect fill="#FEFECE" filter="url(#fso0ib47mr72s)" height="36.2969" rx="12.5" ry="12.5" style="stroke: #A80036; stroke-width: 1.5;" width="162" x="638" y="188.8906"/><text fill="#000000" font-family="sans-serif" font-size="14" lengthAdjust="spacingAndGlyphs" textLength="142" x="648" y="211.8857">Idea producte/servei</text><rect fill="#FEFECE" filter="url(#fso0ib47mr72s)" height="36.2969" rx="12.5" ry="12.5" style="stroke: #A80036; stroke-width: 1.5;" width="71" x="850" y="188.8906"/><text fill="#000000" font-family="sans-serif" font-size="14" lengthAdjust="spacingAndGlyphs" textLength="51" x="860" y="211.8857">PMBOK</text><rect fill="#FEFECE" filter="url(#fso0ib47mr72s)" height="36.2969" rx="12.5" ry="12.5" style="stroke: #A80036; stroke-width: 1.5;" width="81" x="971" y="20"/><text fill="#000000" font-family="sans-serif" font-size="14" lengthAdjust="spacingAndGlyphs" textLength="61" x="981" y="42.9951">estandar</text><path d="M921,207.0391 L931,207.0391 C946,207.0391 946,38.1484 961,38.1484 L971,38.1484 " fill="none" style="stroke: #A80036; stroke-width: 1.0;"/><rect fill="#FEFECE" filter="url(#fso0ib47mr72s)" height="36.2969" rx="12.5" ry="12.5" style="stroke: #A80036; stroke-width: 1.5;" width="68" x="971" y="188.8906"/><text fill="#000000" font-family="sans-serif" font-size="14" lengthAdjust="spacingAndGlyphs" textLength="48" x="981" y="211.8857">etapes</text><rect fill="#FEFECE" filter="url(#fso0ib47mr72s)" height="36.2969" rx="12.5" ry="12.5" style="stroke: #A80036; stroke-width: 1.5;" width="64" x="1089" y="76.2969"/><text fill="#000000" font-family="sans-serif" font-size="14" lengthAdjust="spacingAndGlyphs" textLength="44" x="1099" y="99.292">1) inici</text><path d="M1039,207.0391 L1049,207.0391 C1064,207.0391 1064,94.4453 1079,94.4453 L1089,94.4453 " fill="none" style="stroke: #A80036; stroke-width: 1.0;"/><rect fill="#FEFECE" filter="url(#fso0ib47mr72s)" height="36.2969" rx="12.5" ry="12.5" style="stroke: #A80036; stroke-width: 1.5;" width="113" x="1089" y="132.5938"/><text fill="#000000" font-family="sans-serif" font-size="14" lengthAdjust="spacingAndGlyphs" textLength="93" x="1099" y="155.5889">2) planificaci贸</text><path d="M1039,207.0391 L1049,207.0391 C1064,207.0391 1064,150.7422 1079,150.7422 L1089,150.7422 " fill="none" style="stroke: #A80036; stroke-width: 1.0;"/><rect fill="#FEFECE" filter="url(#fso0ib47mr72s)" height="36.2969" rx="12.5" ry="12.5" style="stroke: #A80036; stroke-width: 1.5;" width="100" x="1089" y="188.8906"/><text fill="#000000" font-family="sans-serif" font-size="14" lengthAdjust="spacingAndGlyphs" textLength="80" x="1099" y="211.8857">3) execuci贸</text><path d="M1039,207.0391 L1049,207.0391 C1064,207.0391 1064,207.0391 1079,207.0391 L1089,207.0391 " fill="none" style="stroke: #A80036; stroke-width: 1.0;"/><rect fill="#FEFECE" filter="url(#fso0ib47mr72s)" height="36.2969" rx="12.5" ry="12.5" style="stroke: #A80036; stroke-width: 1.5;" width="90" x="1089" y="245.1875"/><text fill="#000000" font-family="sans-serif" font-size="14" lengthAdjust="spacingAndGlyphs" textLength="66" x="1099" y="268.1826">4) control</text><path d="M1039,207.0391 L1049,207.0391 C1064,207.0391 1064,263.3359 1079,263.3359 L1089,263.3359 " fill="none" style="stroke: #A80036; stroke-width: 1.0;"/><rect fill="#FEFECE" filter="url(#fso0ib47mr72s)" height="36.2969" rx="12.5" ry="12.5" style="stroke: #A80036; stroke-width: 1.5;" width="112" x="1089" y="301.4844"/><text fill="#000000" font-family="sans-serif" font-size="14" lengthAdjust="spacingAndGlyphs" textLength="92" x="1099" y="324.4795">5) tancament</text><path d="M1039,207.0391 L1049,207.0391 C1064,207.0391 1064,319.6328 1079,319.6328 L1089,319.6328 " fill="none" style="stroke: #A80036; stroke-width: 1.0;"/><path d="M921,207.0391 L931,207.0391 C946,207.0391 946,207.0391 961,207.0391 L971,207.0391 " fill="none" style="stroke: #A80036; stroke-width: 1.0;"/><rect fill="#FEFECE" filter="url(#fso0ib47mr72s)" height="36.2969" rx="12.5" ry="12.5" style="stroke: #A80036; stroke-width: 1.5;" width="106" x="971" y="357.7813"/><text fill="#000000" font-family="sans-serif" font-size="14" lengthAdjust="spacingAndGlyphs" textLength="86" x="981" y="380.7764">metodologia</text><path d="M921,207.0391 L931,207.0391 C946,207.0391 946,375.9297 961,375.9297 L971,375.9297 " fill="none" style="stroke: #A80036; stroke-width: 1.0;"/><path d="M800,207.0391 L810,207.0391 C825,207.0391 825,207.0391 840,207.0391 L850,207.0391 " fill="none" style="stroke: #A80036; stroke-width: 1.0;"/><rect fill="#FEFECE" filter="url(#fso0ib47mr72s)" height="36.2969" rx="12.5" ry="12.5" style="stroke: #A80036; stroke-width: 1.5;" width="77" x="511" y="76.2969"/><text fill="#000000" font-family="sans-serif" font-size="14" lengthAdjust="spacingAndGlyphs" textLength="57" x="521" y="99.292">Projecte</text><rect fill="#FEFECE" filter="url(#fso0ib47mr72s)" height="36.2969" rx="12.5" ry="12.5" style="stroke: #A80036; stroke-width: 1.5;" width="49" x="412" y="27.0371"/><text fill="#000000" font-family="sans-serif" font-size="14" lengthAdjust="spacingAndGlyphs" textLength="29" x="422" y="50.0322">unic</text><path d="M511,94.4453 L501,94.4453 C486,94.4453 486,45.1855 471,45.1855 L461,45.1855 " fill="none" style="stroke: #A80036; stroke-width: 1.0;"/><rect fill="#FEFECE" filter="url(#fso0ib47mr72s)" height="36.2969" rx="12.5" ry="12.5" style="stroke: #A80036; stroke-width: 1.5;" width="60" x="401" y="83.334"/><text fill="#000000" font-family="sans-serif" font-size="14" lengthAdjust="spacingAndGlyphs" textLength="40" x="411" y="106.3291">limitat</text><rect fill="#FEFECE" filter="url(#fso0ib47mr72s)" height="36.2969" rx="12.5" ry="12.5" style="stroke: #A80036; stroke-width: 1.5;" width="64" x="287" y="41.1113"/><text fill="#000000" font-family="sans-serif" font-size="14" lengthAdjust="spacingAndGlyphs" textLength="44" x="297" y="64.1064">temps</text><path d="M401,101.4824 L391,101.4824 C376,101.4824 376,59.2598 361,59.2598 L351,59.2598 " fill="none" style="stroke: #A80036; stroke-width: 1.0;"/><rect fill="#FEFECE" filter="url(#fso0ib47mr72s)" height="36.2969" rx="12.5" ry="12.5" style="stroke: #A80036; stroke-width: 1.5;" width="81" x="270" y="97.4082"/><text fill="#000000" font-family="sans-serif" font-size="14" lengthAdjust="spacingAndGlyphs" textLength="61" x="280" y="120.4033">recursos</text><rect fill="#FEFECE" filter="url(#fso0ib47mr72s)" height="36.2969" rx="12.5" ry="12.5" style="stroke: #A80036; stroke-width: 1.5;" width="76" x="144" y="69.2598"/><text fill="#000000" font-family="sans-serif" font-size="14" lengthAdjust="spacingAndGlyphs" textLength="56" x="154" y="92.2549">humans</text><path d="M270,115.5566 L260,115.5566 C245,115.5566 245,87.4082 230,87.4082 L220,87.4082 " fill="none" style="stroke: #A80036; stroke-width: 1.0;"/><rect fill="#FEFECE" filter="url(#fso0ib47mr72s)" height="36.2969" rx="12.5" ry="12.5" style="stroke: #A80036; stroke-width: 1.5;" width="82" x="138" y="125.5566"/><text fill="#000000" font-family="sans-serif" font-size="14" lengthAdjust="spacingAndGlyphs" textLength="62" x="148" y="148.5518">materials</text><path d="M270,115.5566 L260,115.5566 C245,115.5566 245,143.7051 230,143.7051 L220,143.7051 " fill="none" style="stroke: #A80036; stroke-width: 1.0;"/><path d="M401,101.4824 L391,101.4824 C376,101.4824 376,115.5566 361,115.5566 L351,115.5566 " fill="none" style="stroke: #A80036; stroke-width: 1.0;"/><path d="M511,94.4453 L501,94.4453 C486,94.4453 486,101.4824 471,101.4824 L461,101.4824 " fill="none" style="stroke: #A80036; stroke-width: 1.0;"/><path d="M638,207.0391 L628,207.0391 C613,207.0391 613,94.4453 598,94.4453 L588,94.4453 " fill="none" style="stroke: #A80036; stroke-width: 1.0;"/><rect fill="#FEFECE" filter="url(#fso0ib47mr72s)" height="36.2969" rx="12.5" ry="12.5" style="stroke: #A80036; stroke-width: 1.5;" width="225" x="363" y="266.2988"/><text fill="#000000" font-family="sans-serif" font-size="14" lengthAdjust="spacingAndGlyphs" textLength="205" x="373" y="289.2939">Equip (Persones del Projecte)</text><rect fill="#FEFECE" filter="url(#fso0ib47mr72s)" height="36.2969" rx="12.5" ry="12.5" style="stroke: #A80036; stroke-width: 1.5;" width="92" x="221" y="181.8535"/><text fill="#000000" font-family="sans-serif" font-size="14" lengthAdjust="spacingAndGlyphs" textLength="72" x="231" y="204.8486">Promotora</text><path d="M363,284.4473 L353,284.4473 C338,284.4473 338,200.002 323,200.002 L313,200.002 " fill="none" style="stroke: #A80036; stroke-width: 1.0;"/><rect fill="#FEFECE" filter="url(#fso0ib47mr72s)" height="36.2969" rx="12.5" ry="12.5" style="stroke: #A80036; stroke-width: 1.5;" width="161" x="152" y="238.1504"/><text fill="#000000" font-family="sans-serif" font-size="14" lengthAdjust="spacingAndGlyphs" textLength="141" x="162" y="261.1455">Gestora del projecte</text><path d="M363,284.4473 L353,284.4473 C338,284.4473 338,256.2988 323,256.2988 L313,256.2988 " fill="none" style="stroke: #A80036; stroke-width: 1.0;"/><rect fill="#FEFECE" filter="url(#fso0ib47mr72s)" height="36.2969" rx="12.5" ry="12.5" style="stroke: #A80036; stroke-width: 1.5;" width="303" x="10" y="294.4473"/><text fill="#000000" font-family="sans-serif" font-size="14" lengthAdjust="spacingAndGlyphs" textLength="283" x="20" y="317.4424">Desenvolupadores del projecte (conjunt)</text><path d="M363,284.4473 L353,284.4473 C338,284.4473 338,312.5957 323,312.5957 L313,312.5957 " fill="none" style="stroke: #A80036; stroke-width: 1.0;"/><rect fill="#FEFECE" filter="url(#fso0ib47mr72s)" height="36.2969" rx="12.5" ry="12.5" style="stroke: #A80036; stroke-width: 1.5;" width="178" x="135" y="350.7441"/><text fill="#000000" font-family="sans-serif" font-size="14" lengthAdjust="spacingAndGlyphs" textLength="158" x="145" y="373.7393">Interessades (Conjunt)</text><path d="M363,284.4473 L353,284.4473 C338,284.4473 338,368.8926 323,368.8926 L313,368.8926 " fill="none" style="stroke: #A80036; stroke-width: 1.0;"/><path d="M638,207.0391 L628,207.0391 C613,207.0391 613,284.4473 598,284.4473 L588,284.4473 " fill="none" style="stroke: #A80036; stroke-width: 1.0;"/><!--MD5=[fc27df5e3cceaf3f6de5e78bd51b827e]
@startmindmap
* Idea producte/servei
** PMBOK
*** estandar
*** etapes
**** 1) inici
**** 2) planificaci贸
**** 3) execuci贸
**** 4) control 
**** 5) tancament
*** metodologia

left side

** Projecte
*** unic
*** limitat
**** temps
**** recursos
***** humans
***** materials

** Equip (Persones del Projecte)
*** Promotora
*** Gestora del projecte
*** Desenvolupadores del projecte (conjunt)
*** Interessades (Conjunt)
@endmindmap

PlantUML version 1.2020.04(Thu Mar 19 10:16:49 UTC 2020)
(GPL source distribution)
Java Runtime: OpenJDK Runtime Environment
JVM: OpenJDK 64-Bit Server VM
Java Version: 1.8.0_212-8u212-b01-1~deb9u1-b01
Operating System: Linux
Default Encoding: UTF-8
Language: en
Country: null
--></g></svg>